<svg viewBox="0 0 187.443777778 10.842" width="187.443777778pt" height="10.842pt" xmlns="http://www.w3.org/2000/svg" xmlns:xlink="http://www.w3.org/1999/xlink" xmlns:h5="http://www.w3.org/1999/xhtml"><g transform="matrix(1 0 0 -1 0 8.362)"><use xlink:href="#g6517459F2F5EC831542E8F502CD2457A" x="0" y="0" fill="#000000" fill-rule="nonzero"/></g><g transform="matrix(1 0 0 -1 5.8 4.732)"><use xlink:href="#gEE6EC2A642394AEC75589BDD38303D5A" x="0" y="0" fill="#000000" fill-rule="nonzero"/></g><g transform="matrix(1 0 0 -1 10.889 8.362)"><use xlink:href="#gA5379C297008FE083E855C8E8B850A03" x="0" y="0" fill="#000000" fill-rule="nonzero"/></g><g transform="matrix(1 0 0 -1 14.779 8.362)"><use xlink:href="#g8F3B43BF00419FE170D741E9CC615A47" x="0" y="0" fill="#000000" fill-rule="nonzero"/></g><g transform="matrix(1 0 0 -1 20.499 8.362)"><use xlink:href="#g62817012A814A947D74F91B268BA3C0F" x="0" y="0" fill="#000000" fill-rule="nonzero"/></g><g transform="matrix(1 0 0 -1 27.166777778 8.362)"><use xlink:href="#g7679559C61795D4B2FBCEF1D6942AEE" x="0" y="0" fill="#000000" fill-rule="nonzero"/></g><g transform="matrix(1 0 0 -1 37.724555556 8.362)"><use xlink:href="#gE8ADFB55DBC888FEFF5896D44F418AFF" x="0" y="0" fill="#000000" fill-rule="nonzero"/></g><g transform="matrix(1 0 0 -1 45.504555556 8.362)"><use xlink:href="#g187F960CD8D343F130EAFAB63E4BE0DE" x="0" y="0" fill="#000000" fill-rule="nonzero"/></g><g transform="matrix(1 0 0 -1 50.504555556 8.362)"><use xlink:href="#gDCB33243FA7B758E3BCD0C7DC09CD368" x="0" y="0" fill="#000000" fill-rule="nonzero"/></g><g transform="matrix(1 0 0 -1 55.504555556 8.362)"><use xlink:href="#gBA8E9B5B9CFB1B01CAA665CFE5F7BE8E" x="0" y="0" fill="#000000" fill-rule="nonzero"/></g><g transform="matrix(1 0 0 -1 60.504555556 8.362)"><use xlink:href="#gEA559700EBCAB2A671CAB67B8B230DBF" x="0" y="0" fill="#000000" fill-rule="nonzero"/></g><g transform="matrix(1 0 0 -1 63.284555556 8.362)"><use xlink:href="#gAA84A9423BA34B701FF3D1FC1A0341B9" x="0" y="0" fill="#000000" fill-rule="nonzero"/></g><g transform="matrix(1 0 0 -1 70.506777778 8.362)"><use xlink:href="#gFD02562F2CFC1A6DD18A0964CBD6EC71" x="0" y="0" fill="#000000" fill-rule="nonzero"/></g><g transform="matrix(1 0 0 -1 77.729 8.362)"><use xlink:href="#g8F3B43BF00419FE170D741E9CC615A47" x="0" y="0" fill="#000000" fill-rule="nonzero"/></g><g transform="matrix(1 0 0 -1 83.449 4.732)"><use xlink:href="#g64E1EB88A320840EEBFC28CA923E6F3B" x="0" y="0" fill="#000000" fill-rule="nonzero"/></g><g transform="matrix(1 0 0 -1 90.242222222 8.362)"><use xlink:href="#gF0FB29C9C6195216D5F3788A30EA81BF" x="0" y="0" fill="#000000" fill-rule="nonzero"/></g><g transform="matrix(1 0 0 -1 100.244444444 8.362)"><use xlink:href="#g25AA077DE012500399ECCD32292552DD" x="0" y="0" fill="#000000" fill-rule="nonzero"/></g><g transform="matrix(1 0 0 -1 105.244444444 8.362)"><use xlink:href="#g187F960CD8D343F130EAFAB63E4BE0DE" x="0" y="0" fill="#000000" fill-rule="nonzero"/></g><g transform="matrix(1 0 0 -1 110.244444444 8.362)"><use xlink:href="#gEA559700EBCAB2A671CAB67B8B230DBF" x="0" y="0" fill="#000000" fill-rule="nonzero"/></g><g transform="matrix(1 0 0 -1 113.024444444 8.362)"><use xlink:href="#gAA84A9423BA34B701FF3D1FC1A0341B9" x="0" y="0" fill="#000000" fill-rule="nonzero"/></g><g transform="matrix(1 0 0 -1 120.246666667 8.362)"><use xlink:href="#gFD02562F2CFC1A6DD18A0964CBD6EC71" x="0" y="0" fill="#000000" fill-rule="nonzero"/></g><g transform="matrix(1 0 0 -1 127.468888889 8.362)"><use xlink:href="#g8F3B43BF00419FE170D741E9CC615A47" x="0" y="0" fill="#000000" fill-rule="nonzero"/></g><g transform="matrix(1 0 0 -1 133.188888889 4.732)"><use xlink:href="#g2DC2DCCEEAC840B9C5DF552FD3DD3958" x="0" y="0" fill="#000000" fill-rule="nonzero"/></g><g transform="matrix(1 0 0 -1 139.954111111 8.362)"><use xlink:href="#gE8ADFB55DBC888FEFF5896D44F418AFF" x="0" y="0" fill="#000000" fill-rule="nonzero"/></g><g transform="matrix(1 0 0 -1 149.956333333 8.362)"><use xlink:href="#g187F960CD8D343F130EAFAB63E4BE0DE" x="0" y="0" fill="#000000" fill-rule="nonzero"/></g><g transform="matrix(1 0 0 -1 154.956333333 8.362)"><use xlink:href="#g25AA077DE012500399ECCD32292552DD" x="0" y="0" fill="#000000" fill-rule="nonzero"/></g><g transform="matrix(1 0 0 -1 159.956333333 8.362)"><use xlink:href="#gEA559700EBCAB2A671CAB67B8B230DBF" x="0" y="0" fill="#000000" fill-rule="nonzero"/></g><g transform="matrix(1 0 0 -1 162.736333333 8.362)"><use xlink:href="#gAA84A9423BA34B701FF3D1FC1A0341B9" x="0" y="0" fill="#000000" fill-rule="nonzero"/></g><g transform="matrix(1 0 0 -1 169.958555556 8.362)"><use xlink:href="#gFD02562F2CFC1A6DD18A0964CBD6EC71" x="0" y="0" fill="#000000" fill-rule="nonzero"/></g><g transform="matrix(1 0 0 -1 177.180777778 8.362)"><use xlink:href="#g8F3B43BF00419FE170D741E9CC615A47" x="0" y="0" fill="#000000" fill-rule="nonzero"/></g><g transform="matrix(1 0 0 -1 182.900777778 4.732)"><use xlink:href="#g9C0042E55FD1BD8A0767C5F489CC0E48" x="0" y="0" fill="#000000" fill-rule="nonzero"/></g><defs><symbol id="g6517459F2F5EC831542E8F502CD2457A" overflow="visible"><path d="M 0 0m 5.52 6.33c 0 0.44 -0.43 0.72 -0.9 0.72c -0.62 0 -1.05 -0.4 -1.28 -1.19c -0.05 -0.18 -0.16 -0.69 -0.32 -1.53h -0.65c -0.22 0 -0.33 -0.01 -0.33 -0.22c 0 -0.11 0.1 -0.16 0.31 -0.16h 0.6l -0.73 -3.87c -0.11 -0.57 -0.21 -0.99 -0.3 -1.27c -0.12 -0.37 -0.29 -0.56 -0.51 -0.56c -0.15 0 -0.27 0.04 -0.38 0.11c 0.32 0.05 0.48 0.24 0.48 0.56c 0 0.26 -0.13 0.39 -0.4 0.39c -0.34 0 -0.58 -0.3 -0.58 -0.64c 0 -0.44 0.41 -0.72 0.88 -0.72c 0.25 0 0.48 0.1 0.67 0.31c 0.32 0.33 0.57 0.8 0.75 1.43c 0.11 0.39 0.21 0.77 0.28 1.15l 0.58 3.11h 0.82c 0.23 0 0.33 0.01 0.33 0.24c 0 0.09 -0.1 0.14 -0.3 0.14h -0.77c 0.06 0.41 0.34 1.92 0.43 2.11c 0.1 0.21 0.24 0.31 0.42 0.31c 0.15 0 0.28 -0.04 0.39 -0.11c -0.31 -0.07 -0.47 -0.25 -0.47 -0.56c 0 -0.26 0.13 -0.39 0.4 -0.39c 0.34 0 0.58 0.3 0.58 0.64Z "/></symbol><symbol id="gEE6EC2A642394AEC75589BDD38303D5A" overflow="visible"><path d="M 0 0m 3.661 3.843c -0.182 0 -0.301 -0.07 -0.357 -0.217l -1.197 -2.954h 0.322l 1.575 2.569c 0.035 0.063 0.056 0.133 0.056 0.21c 0 0.21 -0.189 0.392 -0.399 0.392Z m -1.652 0c -0.182 0 -0.301 -0.07 -0.357 -0.217l -1.197 -2.954h 0.322l 1.568 2.569c 0.042 0.063 0.063 0.133 0.063 0.21c 0 0.21 -0.189 0.392 -0.399 0.392Z "/></symbol><symbol id="gA5379C297008FE083E855C8E8B850A03" overflow="visible"><path d="M 0 0m 3.18 -2.48c 0.09 0 0.14 0.05 0.14 0.14c 0 0.03 -0.02 0.07 -0.05 0.11c -0.52 0.4 -0.94 1.06 -1.25 1.97c -0.27 0.79 -0.41 1.57 -0.41 2.34v 0.84c 0 0.77 0.14 1.55 0.41 2.34c 0.31 0.91 0.73 1.57 1.25 1.97c 0.03 0.03 0.05 0.07 0.05 0.11c 0 0.09 -0.05 0.14 -0.14 0.14c -0.01 0 -0.04 -0.01 -0.07 -0.03c -0.6 -0.46 -1.1 -1.14 -1.51 -2.05c -0.39 -0.87 -0.59 -1.69 -0.59 -2.48v -0.84c 0 -0.79 0.2 -1.61 0.59 -2.48c 0.41 -0.91 0.91 -1.59 1.51 -2.05c 0.03 -0.02 0.06 -0.03 0.07 -0.03Z "/></symbol><symbol id="g8F3B43BF00419FE170D741E9CC615A47" overflow="visible"><path d="M 0 0m 5.27 3.73c 0 0.46 -0.45 0.69 -0.95 0.69c -0.43 0 -0.77 -0.23 -1.03 -0.69c -0.21 0.46 -0.56 0.69 -1.07 0.69c -0.49 0 -0.89 -0.23 -1.21 -0.68c -0.27 -0.39 -0.41 -0.68 -0.41 -0.87c 0 -0.09 0.05 -0.14 0.15 -0.14c 0.09 0 0.15 0.05 0.17 0.14c 0.19 0.58 0.61 1.26 1.28 1.26c 0.33 0 0.49 -0.21 0.49 -0.62c 0 -0.21 -0.18 -0.99 -0.53 -2.33c -0.17 -0.67 -0.47 -1 -0.9 -1c -0.14 0 -0.27 0.03 -0.38 0.08c 0.26 0.1 0.39 0.28 0.39 0.54c 0 0.26 -0.13 0.39 -0.4 0.39c -0.33 0 -0.58 -0.28 -0.58 -0.61c 0 -0.46 0.47 -0.69 0.96 -0.69c 0.42 0 0.76 0.23 1.03 0.69c 0.19 -0.46 0.55 -0.69 1.07 -0.69c 0.48 0 0.88 0.23 1.2 0.68c 0.27 0.39 0.41 0.68 0.41 0.87c 0 0.09 -0.05 0.14 -0.15 0.14c -0.09 0 -0.14 -0.05 -0.17 -0.14c -0.17 -0.57 -0.62 -1.26 -1.27 -1.26c -0.33 0 -0.5 0.2 -0.5 0.61c 0 0.13 0.05 0.41 0.16 0.86l 0.34 1.35c 0.19 0.75 0.5 1.13 0.94 1.13c 0.14 0 0.27 -0.03 0.38 -0.08c -0.27 -0.09 -0.4 -0.27 -0.4 -0.54c 0 -0.26 0.14 -0.39 0.41 -0.39c 0.32 0 0.57 0.29 0.57 0.61Z "/></symbol><symbol id="g62817012A814A947D74F91B268BA3C0F" overflow="visible"><path d="M 0 0m 0.78 -2.45c 0.6 0.46 1.1 1.14 1.51 2.05c 0.39 0.87 0.59 1.69 0.59 2.48v 0.84c 0 0.79 -0.2 1.61 -0.59 2.48c -0.41 0.91 -0.91 1.59 -1.51 2.05c -0.03 0.02 -0.06 0.03 -0.07 0.03c -0.09 0 -0.14 -0.05 -0.14 -0.14c 0 -0.04 0.02 -0.08 0.05 -0.11c 0.52 -0.4 0.94 -1.06 1.25 -1.97c 0.27 -0.79 0.41 -1.57 0.41 -2.34v -0.84c 0 -0.77 -0.14 -1.55 -0.41 -2.34c -0.31 -0.91 -0.73 -1.57 -1.25 -1.97c -0.03 -0.04 -0.05 -0.08 -0.05 -0.11c 0 -0.09 0.05 -0.14 0.14 -0.14c 0.01 0 0.04 0.01 0.07 0.03Z "/></symbol><symbol id="g7679559C61795D4B2FBCEF1D6942AEE" overflow="visible"><path d="M 0 0m 6.98 3.67h -6.18c -0.16 0 -0.24 -0.08 -0.24 -0.23c 0 -0.15 0.08 -0.23 0.24 -0.23h 6.18c 0.16 0 0.24 0.08 0.24 0.23c 0 0.12 -0.11 0.23 -0.24 0.23Z m 0 -1.88h -6.18c -0.16 0 -0.24 -0.08 -0.24 -0.23c 0 -0.15 0.08 -0.23 0.24 -0.23h 6.18c 0.16 0 0.24 0.08 0.24 0.23c 0 0.13 -0.11 0.23 -0.24 0.23Z "/></symbol><symbol id="gE8ADFB55DBC888FEFF5896D44F418AFF" overflow="visible"><path d="M 0 0m 6.98 2.7h -6.18c -0.16 0 -0.24 -0.07 -0.24 -0.2c 0 -0.13 0.08 -0.2 0.24 -0.2h 6.18c 0.16 0 0.24 0.07 0.24 0.2c 0 0.12 -0.12 0.2 -0.24 0.2Z "/></symbol><symbol id="g187F960CD8D343F130EAFAB63E4BE0DE" overflow="visible"><path d="M 0 0m 2.37 6.66c -0.51 0 -0.94 -0.18 -1.31 -0.54c -0.37 -0.36 -0.56 -0.78 -0.56 -1.29c 0 -0.34 0.25 -0.59 0.56 -0.59c 0.3 0 0.55 0.26 0.55 0.56c 0 0.33 -0.24 0.56 -0.56 0.56c -0.03 0 -0.05 0 -0.07 -0.01c 0.19 0.49 0.63 0.92 1.26 0.92c 0.82 0 1.28 -0.71 1.28 -1.57c 0 -0.67 -0.34 -1.39 -1.02 -2.15l -1.88 -2.12c -0.13 -0.15 -0.12 -0.14 -0.12 -0.43h 3.71l 0.29 1.8h -0.33c -0.08 -0.51 -0.15 -0.8 -0.21 -0.89c -0.05 -0.05 -0.35 -0.07 -0.9 -0.07h -1.67l 0.97 0.95c 0.68 0.64 1.54 1.33 1.83 1.86c 0.2 0.35 0.3 0.7 0.3 1.05c 0 1.18 -0.92 1.96 -2.12 1.96Z "/></symbol><symbol id="gDCB33243FA7B758E3BCD0C7DC09CD368" overflow="visible"><path d="M 0 0m 2.69 6.66c -0.41 -0.42 -1.01 -0.63 -1.8 -0.63v -0.39c 0.52 0 0.95 0.08 1.28 0.24v -5.06c 0 -0.18 -0.04 -0.3 -0.13 -0.35c -0.09 -0.05 -0.34 -0.08 -0.74 -0.08h -0.35v -0.39c 0.25 0.02 0.79 0.03 1.62 0.03c 0.83 0 1.37 -0.01 1.62 -0.03v 0.39h -0.35c -0.41 0 -0.66 0.03 -0.74 0.08c -0.08 0.05 -0.13 0.17 -0.13 0.35v 5.54c 0 0.24 -0.02 0.3 -0.28 0.3Z "/></symbol><symbol id="gBA8E9B5B9CFB1B01CAA665CFE5F7BE8E" overflow="visible"><path d="M 0 0m 3.83 5.04c 0.33 0 0.49 0.17 0.49 0.51c 0 0.72 -0.54 1.11 -1.28 1.11c -0.83 0 -1.49 -0.39 -1.98 -1.18c -0.43 -0.68 -0.64 -1.45 -0.64 -2.32c 0 -1.27 0.23 -2.16 0.7 -2.69c 0.4 -0.46 0.86 -0.69 1.39 -0.69c 0.61 0 1.11 0.23 1.5 0.69c 0.37 0.44 0.56 0.97 0.56 1.58c 0 0.61 -0.18 1.13 -0.54 1.56c -0.38 0.46 -0.87 0.7 -1.46 0.7c -0.52 0 -0.92 -0.29 -1.19 -0.85v 0.06c 0 1.13 0.28 2.09 0.88 2.53c 0.26 0.19 0.53 0.28 0.8 0.28c 0.36 0 0.62 -0.1 0.79 -0.31c -0.34 0 -0.51 -0.19 -0.51 -0.49c 0 -0.28 0.21 -0.49 0.49 -0.49Z m -0.39 -1.64c 0.11 -0.23 0.17 -0.68 0.17 -1.34c 0 -0.65 -0.05 -1.08 -0.16 -1.3c -0.2 -0.41 -0.51 -0.62 -0.94 -0.62c -0.29 0 -0.51 0.1 -0.67 0.3c -0.13 0.16 -0.22 0.3 -0.26 0.41c -0.12 0.31 -0.18 0.78 -0.18 1.42c 0 0.28 0.04 0.55 0.11 0.81c 0.13 0.47 0.5 0.91 1.05 0.91c 0.39 0 0.69 -0.2 0.88 -0.59Z "/></symbol><symbol id="gEA559700EBCAB2A671CAB67B8B230DBF" overflow="visible"><path d="M 0 0m 1.92 0.53c 0 0.29 -0.24 0.53 -0.53 0.53c -0.29 0 -0.53 -0.24 -0.53 -0.53c 0 -0.29 0.24 -0.53 0.53 -0.53c 0.29 0 0.53 0.24 0.53 0.53Z "/></symbol><symbol id="gAA84A9423BA34B701FF3D1FC1A0341B9" overflow="visible"><path d="M 0 0m 2.49 -0.22c 1.41 0 2.11 1.14 2.11 3.42c 0 1.53 -0.32 2.55 -0.95 3.05c -0.35 0.27 -0.74 0.41 -1.15 0.41c -1.41 0 -2.11 -1.15 -2.11 -3.46c 0 -1.84 0.49 -3.42 2.1 -3.42Z m 1.12 5.46c 0.07 -0.35 0.1 -0.99 0.1 -1.92c 0 -0.92 -0.04 -1.6 -0.11 -2.04c -0.13 -0.8 -0.5 -1.2 -1.11 -1.2c -0.23 0 -0.46 0.09 -0.67 0.26c -0.27 0.23 -0.43 0.7 -0.5 1.42c -0.03 0.25 -0.04 0.77 -0.04 1.56c 0 0.87 0.03 1.48 0.08 1.81c 0.09 0.55 0.27 0.9 0.55 1.05c 0.22 0.12 0.41 0.18 0.58 0.18c 0.65 0 1.01 -0.53 1.12 -1.12Z "/></symbol><symbol id="gFD02562F2CFC1A6DD18A0964CBD6EC71" overflow="visible"><path d="M 0 0m 4.04 3.72c -0.07 0 -0.14 -0.02 -0.19 -0.06l -1.18 -0.87l 0.15 1.46c 0.03 0.2 -0.13 0.37 -0.32 0.37c -0.19 0 -0.35 -0.17 -0.32 -0.37l 0.15 -1.46l -1.18 0.87c -0.05 0.04 -0.12 0.06 -0.19 0.06c -0.18 0 -0.33 -0.15 -0.33 -0.33c 0 -0.14 0.07 -0.24 0.2 -0.3l 1.34 -0.59l -1.34 -0.59c -0.13 -0.06 -0.2 -0.16 -0.2 -0.3c 0 -0.18 0.15 -0.33 0.33 -0.33c 0.07 0 0.14 0.02 0.19 0.06l 1.18 0.87l -0.15 -1.46c -0.03 -0.2 0.13 -0.36 0.32 -0.36c 0.19 0 0.35 0.16 0.32 0.36l -0.15 1.46l 1.18 -0.87c 0.05 -0.04 0.12 -0.06 0.19 -0.06c 0.11 0 0.2 0.05 0.27 0.14c 0.15 0.2 0.04 0.41 -0.14 0.49l -1.34 0.59l 1.34 0.59c 0.13 0.06 0.2 0.16 0.2 0.3c 0 0.18 -0.15 0.33 -0.33 0.33Z "/></symbol><symbol id="g64E1EB88A320840EEBFC28CA923E6F3B" overflow="visible"><path d="M 0 0m 3.815 4.508h -1.834c -0.574 0 -0.882 0.035 -0.931 0.112c -0.014 0.021 -0.028 0.056 -0.035 0.112h -0.28l -0.252 -1.533h 0.294c 0.049 0.371 0.112 0.581 0.182 0.63c 0.035 0.021 0.273 0.035 0.7 0.035h 1.442l -0.679 -0.868c -0.658 -0.84 -0.987 -1.743 -0.987 -2.716c 0 -0.28 0.119 -0.42 0.35 -0.42c 0.238 0 0.357 0.14 0.357 0.427v 0.28c 0 1.064 0.189 1.834 0.567 2.317l 1.029 1.302c 0.084 0.112 0.077 0.105 0.077 0.322Z "/></symbol><symbol id="gF0FB29C9C6195216D5F3788A30EA81BF" overflow="visible"><path d="M 0 0m 6.98 2.74h -2.85v 2.85c 0 0.16 -0.08 0.24 -0.24 0.24c -0.16 0 -0.24 -0.08 -0.24 -0.24v -2.85h -2.85c -0.16 0 -0.24 -0.08 -0.24 -0.24c 0 -0.16 0.08 -0.24 0.24 -0.24h 2.85v -2.85c 0 -0.16 0.08 -0.24 0.24 -0.24c 0.16 0 0.24 0.08 0.24 0.24v 2.85h 2.85c 0.16 0 0.24 0.08 0.24 0.24c 0 0.13 -0.11 0.24 -0.24 0.24Z "/></symbol><symbol id="g25AA077DE012500399ECCD32292552DD" overflow="visible"><path d="M 0 0m 3.53 6.77c -0.09 0 -0.17 -0.05 -0.23 -0.14l -3.02 -4.64v -0.36h 2.61v -0.82c 0 -0.18 -0.04 -0.3 -0.11 -0.35c -0.07 -0.05 -0.26 -0.07 -0.59 -0.07h -0.25v -0.39c 0.29 0.02 0.75 0.03 1.37 0.03c 0.62 0 1.08 -0.01 1.37 -0.03v 0.39h -0.25c -0.33 0 -0.52 0.02 -0.59 0.07c -0.07 0.05 -0.11 0.17 -0.11 0.35v 0.82h 0.98v 0.39h -0.98v 4.58c 0 0.1 -0.07 0.17 -0.2 0.17Z m -0.58 -1.24v -3.51h -2.28Z "/></symbol><symbol id="g2DC2DCCEEAC840B9C5DF552FD3DD3958" overflow="visible"><path d="M 0 0m 0.966 2.163c 0.049 0 0.098 0.035 0.154 0.105c 0.224 0.287 0.539 0.427 0.938 0.427c 0.511 0 0.77 -0.42 0.77 -1.253c 0 -0.406 -0.07 -0.707 -0.203 -0.903c -0.189 -0.266 -0.448 -0.399 -0.784 -0.399c -0.49 0 -0.882 0.28 -1.036 0.644c 0.224 0 0.378 0.147 0.378 0.371c 0 0.224 -0.147 0.378 -0.371 0.378c -0.231 -0.035 -0.371 -0.147 -0.371 -0.399c 0 -0.371 0.147 -0.679 0.441 -0.924c 0.273 -0.231 0.602 -0.35 0.973 -0.35c 0.455 0 0.847 0.154 1.183 0.448c 0.336 0.294 0.497 0.665 0.497 1.106c 0 0.427 -0.147 0.784 -0.427 1.085c -0.28 0.301 -0.63 0.448 -1.043 0.448c -0.371 0 -0.679 -0.105 -0.938 -0.308v 1.211c 0.224 -0.056 0.441 -0.084 0.644 -0.084c 0.273 0 0.532 0.056 0.777 0.175c 0.196 0.091 0.693 0.378 0.693 0.581c 0 0.084 -0.042 0.126 -0.119 0.126c -0.385 -0.147 -0.749 -0.224 -1.085 -0.224c -0.343 0 -0.679 0.063 -0.994 0.189c -0.049 0.021 -0.077 0.035 -0.098 0.035c -0.077 0 -0.119 -0.07 -0.119 -0.217v -2.037c 0 -0.14 0.007 -0.231 0.14 -0.231Z "/></symbol><symbol id="g9C0042E55FD1BD8A0767C5F489CC0E48" overflow="visible"><path d="M 0 0m 0.833 2.968c 0.224 0 0.392 0.168 0.392 0.392c 0 0.252 -0.133 0.385 -0.392 0.392c 0.154 0.329 0.504 0.595 0.959 0.595c 0.616 0 1.022 -0.462 1.022 -1.078c 0 -0.336 -0.119 -0.658 -0.364 -0.973c -0.119 -0.161 -0.21 -0.273 -0.273 -0.336l -1.659 -1.645c -0.091 -0.084 -0.077 -0.105 -0.077 -0.315h 2.884l 0.217 1.316h -0.294c -0.049 -0.371 -0.105 -0.588 -0.168 -0.637c -0.035 -0.021 -0.252 -0.035 -0.665 -0.035h -1.19c 0.469 0.413 0.903 0.784 1.316 1.113c 0.315 0.245 0.539 0.462 0.679 0.651c 0.21 0.273 0.315 0.56 0.315 0.861c 0 0.434 -0.168 0.777 -0.511 1.029c -0.301 0.231 -0.679 0.35 -1.127 0.35c -0.385 0 -0.714 -0.112 -1.001 -0.336c -0.301 -0.245 -0.455 -0.553 -0.455 -0.931c 0 -0.238 0.175 -0.413 0.392 -0.413Z "/></symbol></defs></svg>