<svg viewBox="0 0 44.502555556 6.83" width="44.502555556pt" height="6.83pt" xmlns="http://www.w3.org/2000/svg" xmlns:xlink="http://www.w3.org/1999/xlink" xmlns:h5="http://www.w3.org/1999/xhtml"><g transform="matrix(1 0 0 -1 0 6.83)"><use xlink:href="#g394A39A6D6B64E0031935B8E6A2FCE71" x="0" y="0" fill="#000000" fill-rule="nonzero"/></g><g transform="matrix(1 0 0 -1 6.54 9.3)"><use xlink:href="#gA70C7B7FCC0CA3B2C93635921D81A02F" x="0" y="0" fill="#000000" fill-rule="nonzero"/></g><g transform="matrix(1 0 0 -1 15.974777778 6.83)"><use xlink:href="#g7679559C61795D4B2FBCEF1D6942AEE" x="0" y="0" fill="#000000" fill-rule="nonzero"/></g><g transform="matrix(1 0 0 -1 26.532555556 6.83)"><use xlink:href="#g187F960CD8D343F130EAFAB63E4BE0DE" x="0" y="0" fill="#000000" fill-rule="nonzero"/></g><g transform="matrix(1 0 0 -1 31.532555556 6.83)"><use xlink:href="#g25AA077DE012500399ECCD32292552DD" x="0" y="0" fill="#000000" fill-rule="nonzero"/></g><g transform="matrix(1 0 0 -1 36.532555556 6.83)"><use xlink:href="#gEAB4C1D84FD8309B28BC1361121EA674" x="0" y="0" fill="#000000" fill-rule="nonzero"/></g><defs><symbol id="g394A39A6D6B64E0031935B8E6A2FCE71" overflow="visible"><path d="M 0 0m 5.03 4.42c -0.17 0 -0.32 -0.03 -0.47 -0.08c -0.63 -0.21 -1.07 -0.83 -1.32 -1.4c -0.42 -0.93 -0.54 -1.31 -0.85 -2.36c -1.03 0.21 -1.55 0.68 -1.55 1.42c 0 0.67 0.47 1.64 0.8 2.02c 0.06 0.07 0.09 0.12 0.09 0.15c 0 0.09 -0.05 0.14 -0.16 0.14c -0.17 0 -0.39 -0.29 -0.66 -0.87c -0.27 -0.58 -0.41 -1.1 -0.41 -1.55c 0 -1.04 0.79 -1.7 1.7 -1.92l -0.51 -1.62c -0.04 -0.11 -0.06 -0.18 -0.06 -0.21c 0 -0.21 0.11 -0.32 0.33 -0.32c 0.19 0 0.32 0.1 0.4 0.29l 0.34 1.77c 0.11 -0.01 0.2 -0.01 0.29 -0.01c 0.82 0 1.55 0.32 2.21 0.96c 0.66 0.64 0.99 1.37 0.99 2.19c 0 0.78 -0.41 1.4 -1.16 1.4Z m 0.8 -1.62c 0 -0.63 -0.3 -1.18 -0.91 -1.65c -0.57 -0.42 -1.18 -0.63 -1.84 -0.63c -0.06 0 -0.12 0 -0.17 0.01c -0.06 0 -0.09 0 -0.09 -0.01c 0.15 0.79 0.24 1.26 0.28 1.4c 0.23 0.79 0.91 1.85 1.83 1.85c 0.56 0 0.9 -0.4 0.9 -0.97Z "/></symbol><symbol id="gA70C7B7FCC0CA3B2C93635921D81A02F" overflow="visible"><path d="M 0 0m 1.239 1.624c 0 0.133 0.014 0.287 0.035 0.462c 0.07 0.595 0.469 1.323 0.805 1.687c 0.392 0.441 1.064 0.84 1.841 0.84c 0.77 0 1.246 -0.553 1.246 -1.323c 0 -0.105 -0.007 -0.203 -0.021 -0.287c 0 -0.077 0.049 -0.119 0.154 -0.119c 0.084 0 0.14 0.056 0.175 0.175l 0.427 1.743c 0 0.077 -0.042 0.119 -0.119 0.119c -0.035 0 -0.084 -0.028 -0.147 -0.091l -0.483 -0.511c -0.315 0.399 -0.749 0.602 -1.302 0.602c -0.553 0 -1.092 -0.147 -1.617 -0.434c -0.854 -0.476 -1.743 -1.442 -1.743 -2.646c 0 -0.595 0.21 -1.085 0.637 -1.456c 0.406 -0.35 0.91 -0.525 1.519 -0.525c 0.637 0 1.232 0.231 1.771 0.686c 0.161 0.133 0.301 0.301 0.42 0.49c 0.189 0.301 0.287 0.518 0.287 0.651c 0 0.077 -0.049 0.119 -0.147 0.119c -0.077 0 -0.126 -0.042 -0.147 -0.133c -0.133 -0.434 -0.392 -0.791 -0.791 -1.078c -0.399 -0.287 -0.819 -0.427 -1.274 -0.427c -0.917 0 -1.526 0.539 -1.526 1.456Z "/></symbol><symbol id="g7679559C61795D4B2FBCEF1D6942AEE" overflow="visible"><path d="M 0 0m 6.98 3.67h -6.18c -0.16 0 -0.24 -0.08 -0.24 -0.23c 0 -0.15 0.08 -0.23 0.24 -0.23h 6.18c 0.16 0 0.24 0.08 0.24 0.23c 0 0.12 -0.11 0.23 -0.24 0.23Z m 0 -1.88h -6.18c -0.16 0 -0.24 -0.08 -0.24 -0.23c 0 -0.15 0.08 -0.23 0.24 -0.23h 6.18c 0.16 0 0.24 0.08 0.24 0.23c 0 0.13 -0.11 0.23 -0.24 0.23Z "/></symbol><symbol id="g187F960CD8D343F130EAFAB63E4BE0DE" overflow="visible"><path d="M 0 0m 2.37 6.66c -0.51 0 -0.94 -0.18 -1.31 -0.54c -0.37 -0.36 -0.56 -0.78 -0.56 -1.29c 0 -0.34 0.25 -0.59 0.56 -0.59c 0.3 0 0.55 0.26 0.55 0.56c 0 0.33 -0.24 0.56 -0.56 0.56c -0.03 0 -0.05 0 -0.07 -0.01c 0.19 0.49 0.63 0.92 1.26 0.92c 0.82 0 1.28 -0.71 1.28 -1.57c 0 -0.67 -0.34 -1.39 -1.02 -2.15l -1.88 -2.12c -0.13 -0.15 -0.12 -0.14 -0.12 -0.43h 3.71l 0.29 1.8h -0.33c -0.08 -0.51 -0.15 -0.8 -0.21 -0.89c -0.05 -0.05 -0.35 -0.07 -0.9 -0.07h -1.67l 0.97 0.95c 0.68 0.64 1.54 1.33 1.83 1.86c 0.2 0.35 0.3 0.7 0.3 1.05c 0 1.18 -0.92 1.96 -2.12 1.96Z "/></symbol><symbol id="g25AA077DE012500399ECCD32292552DD" overflow="visible"><path d="M 0 0m 3.53 6.77c -0.09 0 -0.17 -0.05 -0.23 -0.14l -3.02 -4.64v -0.36h 2.61v -0.82c 0 -0.18 -0.04 -0.3 -0.11 -0.35c -0.07 -0.05 -0.26 -0.07 -0.59 -0.07h -0.25v -0.39c 0.29 0.02 0.75 0.03 1.37 0.03c 0.62 0 1.08 -0.01 1.37 -0.03v 0.39h -0.25c -0.33 0 -0.52 0.02 -0.59 0.07c -0.07 0.05 -0.11 0.17 -0.11 0.35v 0.82h 0.98v 0.39h -0.98v 4.58c 0 0.1 -0.07 0.17 -0.2 0.17Z m -0.58 -1.24v -3.51h -2.28Z "/></symbol><symbol id="gEAB4C1D84FD8309B28BC1361121EA674" overflow="visible"><path d="M 0 0m 6.71 6.8c -0.19 0 -0.79 0.03 -0.98 0.03c -0.15 0 -0.23 -0.08 -0.23 -0.23c 0 -0.1 0.07 -0.15 0.2 -0.16c 0.28 -0.01 0.42 -0.11 0.42 -0.28c 0 -0.09 -0.05 -0.21 -0.14 -0.36l -2.98 -4.73l -0.66 5.12c 0 0.17 0.21 0.25 0.64 0.25c 0.2 0 0.29 0.07 0.29 0.24c 0 0.1 -0.06 0.15 -0.18 0.15c -0.22 0 -1 -0.03 -1.22 -0.03c -0.2 0 -0.88 0.03 -1.08 0.03c -0.15 0 -0.23 -0.08 -0.23 -0.23c 0 -0.11 0.1 -0.16 0.29 -0.16c 0.17 0 0.29 -0.02 0.37 -0.04c 0.16 -0.05 0.15 -0.07 0.18 -0.26l 0.78 -6.1c 0.03 -0.17 0.11 -0.26 0.24 -0.26c 0.13 0 0.23 0.07 0.31 0.2l 3.56 5.66c 0.23 0.36 0.45 0.59 0.67 0.68c 0.15 0.07 0.34 0.11 0.56 0.12c 0.11 0.01 0.16 0.08 0.17 0.23c 0.01 0.11 -0.05 0.16 -0.17 0.16c -0.15 0 -0.66 -0.03 -0.81 -0.03Z "/></symbol></defs></svg>