<svg viewBox="0 0 95.673444444 9.96" width="95.673444444pt" height="9.96pt" xmlns="http://www.w3.org/2000/svg" xmlns:xlink="http://www.w3.org/1999/xlink" xmlns:h5="http://www.w3.org/1999/xhtml"><g transform="matrix(1 0 0 -1 0 7.48)"><use xlink:href="#g6517459F2F5EC831542E8F502CD2457A" x="0" y="0" fill="#000000" fill-rule="nonzero"/></g><g transform="matrix(1 0 0 -1 5.8 3.85)"><use xlink:href="#gEE6EC2A642394AEC75589BDD38303D5A" x="0" y="0" fill="#000000" fill-rule="nonzero"/></g><g transform="matrix(1 0 0 -1 10.889 7.48)"><use xlink:href="#gA5379C297008FE083E855C8E8B850A03" x="0" y="0" fill="#000000" fill-rule="nonzero"/></g><g transform="matrix(1 0 0 -1 14.779 7.48)"><use xlink:href="#g8F3B43BF00419FE170D741E9CC615A47" x="0" y="0" fill="#000000" fill-rule="nonzero"/></g><g transform="matrix(1 0 0 -1 20.499 7.48)"><use xlink:href="#g62817012A814A947D74F91B268BA3C0F" x="0" y="0" fill="#000000" fill-rule="nonzero"/></g><g transform="matrix(1 0 0 -1 27.166777778 7.48)"><use xlink:href="#g7679559C61795D4B2FBCEF1D6942AEE" x="0" y="0" fill="#000000" fill-rule="nonzero"/></g><g transform="matrix(1 0 0 -1 37.724555556 7.48)"><use xlink:href="#gDCB33243FA7B758E3BCD0C7DC09CD368" x="0" y="0" fill="#000000" fill-rule="nonzero"/></g><g transform="matrix(1 0 0 -1 42.724555556 7.48)"><use xlink:href="#g9563AB861D594B149B861A852A719D69" x="0" y="0" fill="#000000" fill-rule="nonzero"/></g><g transform="matrix(1 0 0 -1 47.724555556 7.48)"><use xlink:href="#gEA559700EBCAB2A671CAB67B8B230DBF" x="0" y="0" fill="#000000" fill-rule="nonzero"/></g><g transform="matrix(1 0 0 -1 50.504555556 7.48)"><use xlink:href="#gAA84A9423BA34B701FF3D1FC1A0341B9" x="0" y="0" fill="#000000" fill-rule="nonzero"/></g><g transform="matrix(1 0 0 -1 57.726777778 7.48)"><use xlink:href="#gFD02562F2CFC1A6DD18A0964CBD6EC71" x="0" y="0" fill="#000000" fill-rule="nonzero"/></g><g transform="matrix(1 0 0 -1 64.949 7.48)"><use xlink:href="#g8F3B43BF00419FE170D741E9CC615A47" x="0" y="0" fill="#000000" fill-rule="nonzero"/></g><g transform="matrix(1 0 0 -1 72.891222222 7.48)"><use xlink:href="#gF0FB29C9C6195216D5F3788A30EA81BF" x="0" y="0" fill="#000000" fill-rule="nonzero"/></g><g transform="matrix(1 0 0 -1 82.893444444 7.48)"><use xlink:href="#gAA84A9423BA34B701FF3D1FC1A0341B9" x="0" y="0" fill="#000000" fill-rule="nonzero"/></g><g transform="matrix(1 0 0 -1 87.893444444 7.48)"><use xlink:href="#gEA559700EBCAB2A671CAB67B8B230DBF" x="0" y="0" fill="#000000" fill-rule="nonzero"/></g><g transform="matrix(1 0 0 -1 90.673444444 7.48)"><use xlink:href="#gAA84A9423BA34B701FF3D1FC1A0341B9" x="0" y="0" fill="#000000" fill-rule="nonzero"/></g><defs><symbol id="g6517459F2F5EC831542E8F502CD2457A" overflow="visible"><path d="M 0 0m 5.52 6.33c 0 0.44 -0.43 0.72 -0.9 0.72c -0.62 0 -1.05 -0.4 -1.28 -1.19c -0.05 -0.18 -0.16 -0.69 -0.32 -1.53h -0.65c -0.22 0 -0.33 -0.01 -0.33 -0.22c 0 -0.11 0.1 -0.16 0.31 -0.16h 0.6l -0.73 -3.87c -0.11 -0.57 -0.21 -0.99 -0.3 -1.27c -0.12 -0.37 -0.29 -0.56 -0.51 -0.56c -0.15 0 -0.27 0.04 -0.38 0.11c 0.32 0.05 0.48 0.24 0.48 0.56c 0 0.26 -0.13 0.39 -0.4 0.39c -0.34 0 -0.58 -0.3 -0.58 -0.64c 0 -0.44 0.41 -0.72 0.88 -0.72c 0.25 0 0.48 0.1 0.67 0.31c 0.32 0.33 0.57 0.8 0.75 1.43c 0.11 0.39 0.21 0.77 0.28 1.15l 0.58 3.11h 0.82c 0.23 0 0.33 0.01 0.33 0.24c 0 0.09 -0.1 0.14 -0.3 0.14h -0.77c 0.06 0.41 0.34 1.92 0.43 2.11c 0.1 0.21 0.24 0.31 0.42 0.31c 0.15 0 0.28 -0.04 0.39 -0.11c -0.31 -0.07 -0.47 -0.25 -0.47 -0.56c 0 -0.26 0.13 -0.39 0.4 -0.39c 0.34 0 0.58 0.3 0.58 0.64Z "/></symbol><symbol id="gEE6EC2A642394AEC75589BDD38303D5A" overflow="visible"><path d="M 0 0m 3.661 3.843c -0.182 0 -0.301 -0.07 -0.357 -0.217l -1.197 -2.954h 0.322l 1.575 2.569c 0.035 0.063 0.056 0.133 0.056 0.21c 0 0.21 -0.189 0.392 -0.399 0.392Z m -1.652 0c -0.182 0 -0.301 -0.07 -0.357 -0.217l -1.197 -2.954h 0.322l 1.568 2.569c 0.042 0.063 0.063 0.133 0.063 0.21c 0 0.21 -0.189 0.392 -0.399 0.392Z "/></symbol><symbol id="gA5379C297008FE083E855C8E8B850A03" overflow="visible"><path d="M 0 0m 3.18 -2.48c 0.09 0 0.14 0.05 0.14 0.14c 0 0.03 -0.02 0.07 -0.05 0.11c -0.52 0.4 -0.94 1.06 -1.25 1.97c -0.27 0.79 -0.41 1.57 -0.41 2.34v 0.84c 0 0.77 0.14 1.55 0.41 2.34c 0.31 0.91 0.73 1.57 1.25 1.97c 0.03 0.03 0.05 0.07 0.05 0.11c 0 0.09 -0.05 0.14 -0.14 0.14c -0.01 0 -0.04 -0.01 -0.07 -0.03c -0.6 -0.46 -1.1 -1.14 -1.51 -2.05c -0.39 -0.87 -0.59 -1.69 -0.59 -2.48v -0.84c 0 -0.79 0.2 -1.61 0.59 -2.48c 0.41 -0.91 0.91 -1.59 1.51 -2.05c 0.03 -0.02 0.06 -0.03 0.07 -0.03Z "/></symbol><symbol id="g8F3B43BF00419FE170D741E9CC615A47" overflow="visible"><path d="M 0 0m 5.27 3.73c 0 0.46 -0.45 0.69 -0.95 0.69c -0.43 0 -0.77 -0.23 -1.03 -0.69c -0.21 0.46 -0.56 0.69 -1.07 0.69c -0.49 0 -0.89 -0.23 -1.21 -0.68c -0.27 -0.39 -0.41 -0.68 -0.41 -0.87c 0 -0.09 0.05 -0.14 0.15 -0.14c 0.09 0 0.15 0.05 0.17 0.14c 0.19 0.58 0.61 1.26 1.28 1.26c 0.33 0 0.49 -0.21 0.49 -0.62c 0 -0.21 -0.18 -0.99 -0.53 -2.33c -0.17 -0.67 -0.47 -1 -0.9 -1c -0.14 0 -0.27 0.03 -0.38 0.08c 0.26 0.1 0.39 0.28 0.39 0.54c 0 0.26 -0.13 0.39 -0.4 0.39c -0.33 0 -0.58 -0.28 -0.58 -0.61c 0 -0.46 0.47 -0.69 0.96 -0.69c 0.42 0 0.76 0.23 1.03 0.69c 0.19 -0.46 0.55 -0.69 1.07 -0.69c 0.48 0 0.88 0.23 1.2 0.68c 0.27 0.39 0.41 0.68 0.41 0.87c 0 0.09 -0.05 0.14 -0.15 0.14c -0.09 0 -0.14 -0.05 -0.17 -0.14c -0.17 -0.57 -0.62 -1.26 -1.27 -1.26c -0.33 0 -0.5 0.2 -0.5 0.61c 0 0.13 0.05 0.41 0.16 0.86l 0.34 1.35c 0.19 0.75 0.5 1.13 0.94 1.13c 0.14 0 0.27 -0.03 0.38 -0.08c -0.27 -0.09 -0.4 -0.27 -0.4 -0.54c 0 -0.26 0.14 -0.39 0.41 -0.39c 0.32 0 0.57 0.29 0.57 0.61Z "/></symbol><symbol id="g62817012A814A947D74F91B268BA3C0F" overflow="visible"><path d="M 0 0m 0.78 -2.45c 0.6 0.46 1.1 1.14 1.51 2.05c 0.39 0.87 0.59 1.69 0.59 2.48v 0.84c 0 0.79 -0.2 1.61 -0.59 2.48c -0.41 0.91 -0.91 1.59 -1.51 2.05c -0.03 0.02 -0.06 0.03 -0.07 0.03c -0.09 0 -0.14 -0.05 -0.14 -0.14c 0 -0.04 0.02 -0.08 0.05 -0.11c 0.52 -0.4 0.94 -1.06 1.25 -1.97c 0.27 -0.79 0.41 -1.57 0.41 -2.34v -0.84c 0 -0.77 -0.14 -1.55 -0.41 -2.34c -0.31 -0.91 -0.73 -1.57 -1.25 -1.97c -0.03 -0.04 -0.05 -0.08 -0.05 -0.11c 0 -0.09 0.05 -0.14 0.14 -0.14c 0.01 0 0.04 0.01 0.07 0.03Z "/></symbol><symbol id="g7679559C61795D4B2FBCEF1D6942AEE" overflow="visible"><path d="M 0 0m 6.98 3.67h -6.18c -0.16 0 -0.24 -0.08 -0.24 -0.23c 0 -0.15 0.08 -0.23 0.24 -0.23h 6.18c 0.16 0 0.24 0.08 0.24 0.23c 0 0.12 -0.11 0.23 -0.24 0.23Z m 0 -1.88h -6.18c -0.16 0 -0.24 -0.08 -0.24 -0.23c 0 -0.15 0.08 -0.23 0.24 -0.23h 6.18c 0.16 0 0.24 0.08 0.24 0.23c 0 0.13 -0.11 0.23 -0.24 0.23Z "/></symbol><symbol id="gDCB33243FA7B758E3BCD0C7DC09CD368" overflow="visible"><path d="M 0 0m 2.69 6.66c -0.41 -0.42 -1.01 -0.63 -1.8 -0.63v -0.39c 0.52 0 0.95 0.08 1.28 0.24v -5.06c 0 -0.18 -0.04 -0.3 -0.13 -0.35c -0.09 -0.05 -0.34 -0.08 -0.74 -0.08h -0.35v -0.39c 0.25 0.02 0.79 0.03 1.62 0.03c 0.83 0 1.37 -0.01 1.62 -0.03v 0.39h -0.35c -0.41 0 -0.66 0.03 -0.74 0.08c -0.08 0.05 -0.13 0.17 -0.13 0.35v 5.54c 0 0.24 -0.02 0.3 -0.28 0.3Z "/></symbol><symbol id="g9563AB861D594B149B861A852A719D69" overflow="visible"><path d="M 0 0m 2.5 6.66c -0.49 0 -0.92 -0.16 -1.28 -0.48c -0.36 -0.32 -0.54 -0.72 -0.54 -1.21c 0 -0.41 0.15 -0.78 0.45 -1.11c 0.07 -0.08 0.29 -0.25 0.66 -0.51c -0.91 -0.47 -1.37 -1.08 -1.37 -1.82c 0 -0.53 0.22 -0.96 0.65 -1.29c 0.4 -0.31 0.87 -0.46 1.42 -0.46c 0.56 0 1.05 0.18 1.46 0.54c 0.41 0.36 0.62 0.83 0.62 1.38c 0 0.46 -0.16 0.87 -0.49 1.24c -0.12 0.13 -0.43 0.36 -0.92 0.67c 0.77 0.41 1.15 0.93 1.15 1.54c 0 0.91 -0.87 1.51 -1.81 1.51Z m 1.29 -1.51c 0 -0.52 -0.31 -0.97 -0.93 -1.34l -1.19 0.78c -0.31 0.2 -0.47 0.46 -0.47 0.77c 0 0.6 0.65 0.97 1.29 0.97c 0.69 0 1.3 -0.49 1.3 -1.18Z m -1.29 -5.01c -0.82 0 -1.51 0.59 -1.51 1.39c 0 0.67 0.37 1.21 1.11 1.62l 1.18 -0.75c 0.48 -0.31 0.72 -0.66 0.72 -1.06c 0 -0.72 -0.75 -1.2 -1.5 -1.2Z "/></symbol><symbol id="gEA559700EBCAB2A671CAB67B8B230DBF" overflow="visible"><path d="M 0 0m 1.92 0.53c 0 0.29 -0.24 0.53 -0.53 0.53c -0.29 0 -0.53 -0.24 -0.53 -0.53c 0 -0.29 0.24 -0.53 0.53 -0.53c 0.29 0 0.53 0.24 0.53 0.53Z "/></symbol><symbol id="gAA84A9423BA34B701FF3D1FC1A0341B9" overflow="visible"><path d="M 0 0m 2.49 -0.22c 1.41 0 2.11 1.14 2.11 3.42c 0 1.53 -0.32 2.55 -0.95 3.05c -0.35 0.27 -0.74 0.41 -1.15 0.41c -1.41 0 -2.11 -1.15 -2.11 -3.46c 0 -1.84 0.49 -3.42 2.1 -3.42Z m 1.12 5.46c 0.07 -0.35 0.1 -0.99 0.1 -1.92c 0 -0.92 -0.04 -1.6 -0.11 -2.04c -0.13 -0.8 -0.5 -1.2 -1.11 -1.2c -0.23 0 -0.46 0.09 -0.67 0.26c -0.27 0.23 -0.43 0.7 -0.5 1.42c -0.03 0.25 -0.04 0.77 -0.04 1.56c 0 0.87 0.03 1.48 0.08 1.81c 0.09 0.55 0.27 0.9 0.55 1.05c 0.22 0.12 0.41 0.18 0.58 0.18c 0.65 0 1.01 -0.53 1.12 -1.12Z "/></symbol><symbol id="gFD02562F2CFC1A6DD18A0964CBD6EC71" overflow="visible"><path d="M 0 0m 4.04 3.72c -0.07 0 -0.14 -0.02 -0.19 -0.06l -1.18 -0.87l 0.15 1.46c 0.03 0.2 -0.13 0.37 -0.32 0.37c -0.19 0 -0.35 -0.17 -0.32 -0.37l 0.15 -1.46l -1.18 0.87c -0.05 0.04 -0.12 0.06 -0.19 0.06c -0.18 0 -0.33 -0.15 -0.33 -0.33c 0 -0.14 0.07 -0.24 0.2 -0.3l 1.34 -0.59l -1.34 -0.59c -0.13 -0.06 -0.2 -0.16 -0.2 -0.3c 0 -0.18 0.15 -0.33 0.33 -0.33c 0.07 0 0.14 0.02 0.19 0.06l 1.18 0.87l -0.15 -1.46c -0.03 -0.2 0.13 -0.36 0.32 -0.36c 0.19 0 0.35 0.16 0.32 0.36l -0.15 1.46l 1.18 -0.87c 0.05 -0.04 0.12 -0.06 0.19 -0.06c 0.11 0 0.2 0.05 0.27 0.14c 0.15 0.2 0.04 0.41 -0.14 0.49l -1.34 0.59l 1.34 0.59c 0.13 0.06 0.2 0.16 0.2 0.3c 0 0.18 -0.15 0.33 -0.33 0.33Z "/></symbol><symbol id="gF0FB29C9C6195216D5F3788A30EA81BF" overflow="visible"><path d="M 0 0m 6.98 2.74h -2.85v 2.85c 0 0.16 -0.08 0.24 -0.24 0.24c -0.16 0 -0.24 -0.08 -0.24 -0.24v -2.85h -2.85c -0.16 0 -0.24 -0.08 -0.24 -0.24c 0 -0.16 0.08 -0.24 0.24 -0.24h 2.85v -2.85c 0 -0.16 0.08 -0.24 0.24 -0.24c 0.16 0 0.24 0.08 0.24 0.24v 2.85h 2.85c 0.16 0 0.24 0.08 0.24 0.24c 0 0.13 -0.11 0.24 -0.24 0.24Z "/></symbol></defs></svg>