<svg viewBox="0 0 80.51 6.58" width="80.51pt" height="6.58pt" xmlns="http://www.w3.org/2000/svg" xmlns:xlink="http://www.w3.org/1999/xlink" xmlns:h5="http://www.w3.org/1999/xhtml"><g transform="matrix(1 0 0 -1 0 6.58)"><use xlink:href="#gCEE67EB975B1E7F4BF7371F596395A76" x="0" y="0" fill="#000000" fill-rule="nonzero"/><use xlink:href="#g98BE2FE73204EAC9F74BB0877216C668" x="3.1" y="0" fill="#000000" fill-rule="nonzero"/><use xlink:href="#g6574995B01E53CF916900D343DDDF292" x="6.08" y="0" fill="#000000" fill-rule="nonzero"/><use xlink:href="#gC3FB9C47AE4BC674026ABA4DF5513DF4" x="10.98" y="0" fill="#000000" fill-rule="nonzero"/><use xlink:href="#g677D0034D52845E59EE9CA34210D5859" x="13.96" y="0" fill="#000000" fill-rule="nonzero"/><use xlink:href="#gEC79FC52D225D04391F52749EE46159D" x="19.46" y="0" fill="#000000" fill-rule="nonzero"/><use xlink:href="#g9DD0E1CB311ECC510462FB392D762474" x="24.11" y="0" fill="#000000" fill-rule="nonzero"/><use xlink:href="#g6DFAD7171EBFBAC7EAFD0C61FA59A787" x="26.31" y="0" fill="#000000" fill-rule="nonzero"/><use xlink:href="#g33522C8F05BA541A26FBEF6D138F64DE" x="30.96" y="0" fill="#000000" fill-rule="nonzero"/><use xlink:href="#g6574995B01E53CF916900D343DDDF292" x="34.65" y="0" fill="#000000" fill-rule="nonzero"/><use xlink:href="#gF809B38F2A421C86DF2CEB815436AEC6" x="39.55" y="0" fill="#000000" fill-rule="nonzero"/><use xlink:href="#g304E62357C4116C5863FB335EB7DD2FC" x="44.73" y="0" fill="#000000" fill-rule="nonzero"/><use xlink:href="#gEC79FC52D225D04391F52749EE46159D" x="47.5" y="0" fill="#000000" fill-rule="nonzero"/><use xlink:href="#g46B905C2A8C4E6FD072601EF3752D49C" x="52.15" y="0" fill="#000000" fill-rule="nonzero"/><use xlink:href="#g489B7EFF1648954396686650D0C34F36" x="54.92" y="0" fill="#000000" fill-rule="nonzero"/><use xlink:href="#g9CDE2E24D779DEC8C09236644F4BDC06" x="60.42" y="0" fill="#000000" fill-rule="nonzero"/><use xlink:href="#g9DD0E1CB311ECC510462FB392D762474" x="65.07" y="0" fill="#000000" fill-rule="nonzero"/><use xlink:href="#g6DFAD7171EBFBAC7EAFD0C61FA59A787" x="67.27" y="0" fill="#000000" fill-rule="nonzero"/><use xlink:href="#g33522C8F05BA541A26FBEF6D138F64DE" x="71.92" y="0" fill="#000000" fill-rule="nonzero"/><use xlink:href="#g6574995B01E53CF916900D343DDDF292" x="75.61" y="0" fill="#000000" fill-rule="nonzero"/></g><defs><symbol id="gCEE67EB975B1E7F4BF7371F596395A76" overflow="visible"><path d="M 0 0m 1.75 1.22v 2.68h 0.93c 0.09 0 0.23 0.04 0.23 0.13v 0.2c 0 0.04 -0.03 0.06 -0.08 0.06h -1.08v 0.57c 0 1.54 0.46 1.78 0.79 1.78c 0.3 0 0.46 -0.12 0.6 -0.47c 0.08 -0.18 0.19 -0.32 0.4 -0.32c 0.17 0 0.41 0.21 0.41 0.41c 0 0.17 -0.11 0.35 -0.32 0.51c -0.26 0.18 -0.52 0.21 -0.9 0.21c -0.84 0 -1.77 -0.73 -1.77 -2.29v -0.4h -0.51c -0.18 0 -0.23 -0.12 -0.23 -0.2v -0.13c 0 -0.05 0.01 -0.06 0.05 -0.06h 0.69v -2.68c 0 -0.83 -0.16 -0.87 -0.7 -0.91c -0.06 -0.06 -0.06 -0.27 0 -0.33c 0.35 0.01 0.7 0.02 1.1 0.02c 0.4 0 0.88 -0.01 1.23 -0.02c 0.06 0.06 0.06 0.27 0 0.33c -0.78 0.04 -0.84 0.08 -0.84 0.91Z "/></symbol><symbol id="g98BE2FE73204EAC9F74BB0877216C668" overflow="visible"><path d="M 0 0m 0.44 2.52c 0 -0.45 0.04 -2.76 2.12 -4.56c 0.1 0.02 0.18 0.09 0.21 0.17c -0.33 0.38 -1.5 1.76 -1.5 4.39c 0 2.63 1.18 4.01 1.5 4.37c -0.03 0.1 -0.1 0.17 -0.21 0.18c -1.19 -1.02 -2.12 -2.69 -2.12 -4.55Z "/></symbol><symbol id="g6574995B01E53CF916900D343DDDF292" overflow="visible"><path d="M 0 0m 1.82 3.58c -0.23 0.34 -0.16 0.35 0.29 0.4c 0.06 0.06 0.06 0.27 0 0.33c -0.27 -0.01 -0.71 -0.02 -1.01 -0.02c -0.3 0 -0.6 0.01 -0.86 0.02c -0.06 -0.06 -0.06 -0.27 0 -0.33c 0.34 -0.03 0.62 -0.2 0.9 -0.61l 0.87 -1.27c 0.05 -0.07 0.05 -0.1 0.01 -0.15l -0.84 -1.08c -0.4 -0.51 -0.62 -0.54 -0.97 -0.56c -0.06 -0.06 -0.06 -0.27 0 -0.33c 0.2 0.01 0.42 0.02 0.72 0.02c 0.3 0 0.58 -0.01 0.84 -0.02c 0.06 0.06 0.06 0.27 0 0.33c -0.36 0.04 -0.44 0.08 -0.22 0.4l 0.63 0.91c 0.08 0.12 0.12 0.11 0.18 0.02l 0.58 -0.8c 0.35 -0.48 0.19 -0.5 -0.13 -0.53c -0.06 -0.06 -0.06 -0.27 0 -0.33c 0.3 0.01 0.63 0.02 0.99 0.02c 0.38 0 0.65 -0.01 0.89 -0.02c 0.06 0.06 0.06 0.27 0 0.33c -0.45 0.03 -0.6 0.06 -1 0.63l -0.9 1.27c -0.04 0.06 -0.05 0.09 0 0.15l 0.84 1.07c 0.37 0.47 0.61 0.52 0.97 0.55c 0.06 0.06 0.06 0.27 0 0.33c -0.2 -0.01 -0.43 -0.02 -0.73 -0.02c -0.3 0 -0.58 0.01 -0.84 0.02c -0.06 -0.06 -0.06 -0.27 0 -0.33c 0.37 -0.04 0.48 -0.07 0.24 -0.41l -0.65 -0.91c -0.07 -0.1 -0.11 -0.09 -0.19 0.02Z "/></symbol><symbol id="gC3FB9C47AE4BC674026ABA4DF5513DF4" overflow="visible"><path d="M 0 0m 2.54 2.52c 0 0.45 -0.04 2.76 -2.12 4.56c -0.1 -0.02 -0.18 -0.09 -0.21 -0.17c 0.33 -0.38 1.5 -1.76 1.5 -4.39c 0 -2.63 -1.18 -4.01 -1.5 -4.37c 0.03 -0.1 0.1 -0.17 0.21 -0.18c 1.19 1.02 2.12 2.69 2.12 4.55Z "/></symbol><symbol id="g677D0034D52845E59EE9CA34210D5859" overflow="visible"><path d="M 0 0m 4.64 3.09c 0.13 0 0.27 0.23 0.27 0.33c 0 0.08 -0.04 0.17 -0.14 0.17h -3.92c -0.12 0 -0.25 -0.19 -0.25 -0.34c 0 -0.08 0.06 -0.16 0.15 -0.16Z m 0 -1.66c 0.13 0 0.27 0.23 0.27 0.33c 0 0.08 -0.04 0.17 -0.14 0.17h -3.92c -0.12 0 -0.25 -0.19 -0.25 -0.34c 0 -0.08 0.06 -0.16 0.15 -0.16Z "/></symbol><symbol id="gEC79FC52D225D04391F52749EE46159D" overflow="visible"><path d="M 0 0m 2.15 5.75c 0.43 0 0.83 -0.26 0.83 -0.9c 0 -0.5 -0.58 -1.27 -1.57 -1.41l 0.05 -0.32c 0.17 0.02 0.35 0.02 0.48 0.02c 0.57 0 1.31 -0.16 1.31 -1.29c 0 -1.33 -0.89 -1.6 -1.24 -1.6c -0.51 0 -0.6 0.23 -0.72 0.41c -0.1 0.14 -0.23 0.26 -0.43 0.26c -0.21 0 -0.42 -0.19 -0.42 -0.35c 0 -0.4 0.84 -0.67 1.44 -0.67c 1.19 0 2.25 0.77 2.25 2.09c 0 1.09 -0.82 1.48 -1.41 1.58l -0.01 0.02c 0.82 0.39 1.05 0.8 1.05 1.33c 0 0.3 -0.07 0.54 -0.31 0.79c -0.22 0.22 -0.57 0.39 -1.09 0.39c -1.47 0 -1.89 -0.96 -1.89 -1.29c 0 -0.14 0.1 -0.34 0.34 -0.34c 0.35 0 0.39 0.33 0.39 0.52c 0 0.64 0.69 0.76 0.95 0.76Z "/></symbol><symbol id="g9DD0E1CB311ECC510462FB392D762474" overflow="visible"><path d="M 0 0m 0.57 0.43c 0 -0.29 0.24 -0.53 0.53 -0.53c 0.29 0 0.53 0.24 0.53 0.53c 0 0.29 -0.24 0.53 -0.53 0.53c -0.29 0 -0.53 -0.24 -0.53 -0.53Z "/></symbol><symbol id="g6DFAD7171EBFBAC7EAFD0C61FA59A787" overflow="visible"><path d="M 0 0m 2.28 -0.1c 0.77 0 1.94 0.78 1.94 3.13c 0 0.99 -0.24 1.84 -0.68 2.42c -0.26 0.35 -0.68 0.65 -1.22 0.65c -0.99 0 -1.93 -1.18 -1.93 -3.16c 0 -1.07 0.33 -2.07 0.88 -2.62c 0.28 -0.28 0.62 -0.42 1.01 -0.42Z m 0.04 5.85c 0.17 0 0.33 -0.06 0.45 -0.17c 0.31 -0.26 0.58 -1.02 0.58 -2.36c 0 -0.92 -0.03 -1.55 -0.17 -2.06c -0.22 -0.82 -0.71 -0.91 -0.89 -0.91c -0.93 0 -1.03 1.71 -1.03 2.58c 0 2.46 0.61 2.92 1.06 2.92Z "/></symbol><symbol id="g33522C8F05BA541A26FBEF6D138F64DE" overflow="visible"><path d="M 0 0m 1.68 5.47c -0.33 -0.37 -0.84 -0.45 -0.84 -0.88c 0 -0.15 0.12 -0.28 0.29 -0.28c 0.38 0 0.45 0.59 0.7 1.04c 0.25 -0.39 0.32 -1.04 0.71 -1.04c 0.14 0 0.29 0.11 0.29 0.29c 0 0.4 -0.49 0.5 -0.83 0.87c 0.18 0.03 0.36 0.04 0.55 0.04c 0.34 0 0.69 0.07 0.69 0.37c 0 0.1 -0.07 0.3 -0.34 0.3c -0.33 0 -0.49 -0.32 -0.95 -0.52c 0.02 0.3 0.19 0.7 0.19 0.97c 0 0.24 -0.15 0.35 -0.33 0.35c -0.18 0 -0.3 -0.18 -0.3 -0.39c 0 -0.26 0.19 -0.53 0.23 -0.92c -0.44 0.18 -0.62 0.51 -0.96 0.51c -0.24 0 -0.33 -0.16 -0.33 -0.3c 0 -0.3 0.32 -0.37 0.81 -0.37c 0.15 0 0.29 -0.01 0.42 -0.04Z "/></symbol><symbol id="gF809B38F2A421C86DF2CEB815436AEC6" overflow="visible"><path d="M 0 0m 2.59 5.93l 1.03 -2.47h 0.45l -1.26 3.04h -0.42l -1.27 -3.04h 0.45Z "/></symbol><symbol id="g304E62357C4116C5863FB335EB7DD2FC" overflow="visible"><path d="M 0 0m 1.78 5.52c -0.05 1.03 0.42 1.2 0.8 1.31c 0.06 0.06 0.06 0.18 0 0.24c -0.9 0 -1.56 -0.4 -1.52 -1.53l 0.06 -1.84c 0 -0.5 -0.24 -1.04 -0.98 -1.11c -0.09 -0.09 -0.08 -0.16 0 -0.24c 0.74 -0.09 1 -0.53 0.98 -1.14l -0.06 -1.7c -0.05 -1.3 0.51 -1.63 1.52 -1.63c 0.06 0.06 0.06 0.18 0 0.24c -0.44 0 -0.84 0.5 -0.8 1.34l 0.08 1.49c 0.04 0.82 -0.37 1.22 -1.05 1.5v 0.04c 0.67 0.19 1.09 0.48 1.05 1.37Z "/></symbol><symbol id="g46B905C2A8C4E6FD072601EF3752D49C" overflow="visible"><path d="M 0 0m 0.95 -0.58c 0.05 -1.03 -0.42 -1.2 -0.8 -1.31c -0.06 -0.06 -0.06 -0.18 0 -0.24c 0.9 0 1.56 0.4 1.52 1.53l -0.06 1.84c 0 0.5 0.24 1.04 0.98 1.11c 0.09 0.09 0.08 0.16 0 0.24c -0.73 0.09 -1 0.53 -0.98 1.14l 0.06 1.7c 0.05 1.3 -0.51 1.63 -1.52 1.63c -0.06 -0.06 -0.06 -0.18 0 -0.24c 0.44 0 0.85 -0.5 0.8 -1.34l -0.08 -1.49c -0.04 -0.82 0.37 -1.22 1.05 -1.5v -0.04c -0.67 -0.19 -1.09 -0.48 -1.05 -1.37Z "/></symbol><symbol id="g489B7EFF1648954396686650D0C34F36" overflow="visible"><path d="M 0 0m 2.5 4.35v -1.59h -1.65c -0.12 0 -0.25 -0.19 -0.25 -0.34c 0 -0.08 0.06 -0.16 0.15 -0.16h 1.75v -1.7c 0 -0.09 0.08 -0.15 0.16 -0.15c 0.15 0 0.34 0.13 0.34 0.25v 1.6h 1.63c 0.13 0 0.27 0.23 0.27 0.33c 0 0.08 -0.04 0.17 -0.14 0.17h -1.76v 1.72c 0 0.1 -0.09 0.14 -0.17 0.14c -0.1 0 -0.33 -0.14 -0.33 -0.27Z "/></symbol><symbol id="g9CDE2E24D779DEC8C09236644F4BDC06" overflow="visible"><path d="M 0 0m 1.44 3.43c 0.27 0.91 0.91 1.92 2.24 2.42c 0 0.12 -0.04 0.21 -0.12 0.26c -1.01 -0.3 -1.63 -0.72 -2.19 -1.37c -0.62 -0.72 -0.93 -1.63 -0.93 -2.42c 0 -2.03 1.15 -2.43 1.92 -2.43c 1.31 0 1.85 1.27 1.85 2.13c 0 0.86 -0.46 1.63 -1.82 1.63c -0.26 0 -0.65 -0.08 -0.95 -0.22Z m -0.09 -0.36c 0.33 0.22 0.66 0.23 0.83 0.23c 0.98 0 1.2 -0.96 1.2 -1.46c 0 -1.1 -0.42 -1.6 -0.91 -1.6c -0.63 0 -1.2 0.34 -1.2 2.05c 0 0.23 0.02 0.49 0.08 0.78Z "/></symbol></defs></svg>