<svg viewBox="0 0 4.65 6.58" width="4.65pt" height="6.58pt" xmlns="http://www.w3.org/2000/svg" xmlns:xlink="http://www.w3.org/1999/xlink" xmlns:h5="http://www.w3.org/1999/xhtml"><g transform="matrix(1 0 0 -1 0 6.58)"><use xlink:href="#g6DFAD7171EBFBAC7EAFD0C61FA59A787" x="0" y="0" fill="#000000" fill-rule="nonzero"/></g><defs><symbol id="g6DFAD7171EBFBAC7EAFD0C61FA59A787" overflow="visible"><path d="M 0 0m 2.28 -0.1c 0.77 0 1.94 0.78 1.94 3.13c 0 0.99 -0.24 1.84 -0.68 2.42c -0.26 0.35 -0.68 0.65 -1.22 0.65c -0.99 0 -1.93 -1.18 -1.93 -3.16c 0 -1.07 0.33 -2.07 0.88 -2.62c 0.28 -0.28 0.62 -0.42 1.01 -0.42Z m 0.04 5.85c 0.17 0 0.33 -0.06 0.45 -0.17c 0.31 -0.26 0.58 -1.02 0.58 -2.36c 0 -0.92 -0.03 -1.55 -0.17 -2.06c -0.22 -0.82 -0.71 -0.91 -0.89 -0.91c -0.93 0 -1.03 1.71 -1.03 2.58c 0 2.46 0.61 2.92 1.06 2.92Z "/></symbol></defs></svg>