<svg viewBox="0 0 11.5 6.58" width="11.5pt" height="6.58pt" xmlns="http://www.w3.org/2000/svg" xmlns:xlink="http://www.w3.org/1999/xlink" xmlns:h5="http://www.w3.org/1999/xhtml"><g transform="matrix(1 0 0 -1 0 6.58)"><use xlink:href="#g53E88946A301F5C1DCEA2C720F6596D3" x="0" y="0" fill="#000000" fill-rule="nonzero"/><use xlink:href="#g90E80DFA2ED72D656149A2EAA0923C99" x="4.65" y="0" fill="#000000" fill-rule="nonzero"/><use xlink:href="#g9C25E780E6AD3E011190AC1851E58112" x="9.3" y="0" fill="#000000" fill-rule="nonzero"/></g><defs><symbol id="g53E88946A301F5C1DCEA2C720F6596D3" overflow="visible"><path d="M 0 0m 3.19 1.89c 0 -0.95 -0.5 -1.65 -1.1 -1.65c -0.38 0 -0.51 0.25 -0.66 0.45c -0.13 0.17 -0.3 0.32 -0.51 0.32c -0.19 0 -0.38 -0.17 -0.38 -0.37c 0 -0.41 0.85 -0.75 1.42 -0.75c 1.24 0 2.12 0.92 2.12 2.18c 0 0.97 -0.67 1.84 -1.79 1.84c -0.43 0 -0.8 -0.09 -0.98 -0.16l 0.2 1.67c 0.37 -0.04 0.69 -0.09 1.17 -0.09c 0.3 0 0.64 0.02 1.05 0.06l 0.16 0.68l -0.07 0.04c -0.57 -0.06 -1.11 -0.11 -1.64 -0.11c -0.37 0 -0.73 0.02 -1.08 0.05l -0.34 -2.88c 0.53 0.2 0.91 0.24 1.27 0.24c 0.65 0 1.16 -0.43 1.16 -1.52Z "/></symbol><symbol id="g90E80DFA2ED72D656149A2EAA0923C99" overflow="visible"><path d="M 0 0m 2.88 1.22v 3.47c 0 0.6 0.01 1.21 0.03 1.34c 0 0.05 -0.02 0.05 -0.06 0.05c -0.55 -0.34 -1.08 -0.59 -1.96 -1c 0.02 -0.11 0.06 -0.21 0.15 -0.27c 0.46 0.19 0.68 0.25 0.87 0.25c 0.17 0 0.2 -0.24 0.2 -0.58v -3.26c 0 -0.83 -0.27 -0.88 -0.97 -0.91c -0.06 -0.06 -0.06 -0.27 0 -0.33c 0.49 0.01 0.85 0.02 1.39 0.02c 0.48 0 0.72 -0.01 1.22 -0.02c 0.06 0.06 0.06 0.27 0 0.33c -0.7 0.03 -0.87 0.08 -0.87 0.91Z "/></symbol><symbol id="g9C25E780E6AD3E011190AC1851E58112" overflow="visible"><path d="M 0 0m 1.04 0.95c -0.31 0 -0.53 -0.21 -0.53 -0.49c 0 -0.31 0.26 -0.41 0.44 -0.44c 0.19 -0.02 0.36 -0.08 0.36 -0.31c 0 -0.21 -0.36 -0.67 -0.88 -0.8c 0 -0.1 0.02 -0.17 0.09 -0.24c 0.6 0.11 1.18 0.59 1.18 1.29c 0 0.6 -0.26 0.99 -0.66 0.99Z "/></symbol></defs></svg>