<svg viewBox="0 0 5 6.66" width="5pt" height="6.66pt" xmlns="http://www.w3.org/2000/svg" xmlns:xlink="http://www.w3.org/1999/xlink" xmlns:h5="http://www.w3.org/1999/xhtml"><g transform="matrix(1 0 0 -1 0 6.66)"><use xlink:href="#gDCB33243FA7B758E3BCD0C7DC09CD368" x="0" y="0" fill="#000000" fill-rule="nonzero"/></g><defs><symbol id="gDCB33243FA7B758E3BCD0C7DC09CD368" overflow="visible"><path d="M 0 0m 2.69 6.66c -0.41 -0.42 -1.01 -0.63 -1.8 -0.63v -0.39c 0.52 0 0.95 0.08 1.28 0.24v -5.06c 0 -0.18 -0.04 -0.3 -0.13 -0.35c -0.09 -0.05 -0.34 -0.08 -0.74 -0.08h -0.35v -0.39c 0.25 0.02 0.79 0.03 1.62 0.03c 0.83 0 1.37 -0.01 1.62 -0.03v 0.39h -0.35c -0.41 0 -0.66 0.03 -0.74 0.08c -0.08 0.05 -0.13 0.17 -0.13 0.35v 5.54c 0 0.24 -0.02 0.3 -0.28 0.3Z "/></symbol></defs></svg>